HIERARCHY
ROOT Hips
{
 OFFSET 0.000000 0.000000 0.000000
 CHANNELS 6 Xposition Yposition Zposition Yrotation Xrotation Zrotation
 JOINT Chest
 {
  OFFSET 0.000000 9.585900 0.002600
  CHANNELS 3 Yrotation Xrotation Zrotation
  JOINT Chest2
  {
   OFFSET 0.000000 9.601200 -0.005300
   CHANNELS 3 Yrotation Xrotation Zrotation
   JOINT Chest3
   {
    OFFSET 0.000000 9.561800 0.000000
    CHANNELS 3 Yrotation Xrotation Zrotation
    JOINT Chest4
    {
     OFFSET 0.000000 9.552100 0.000000
     CHANNELS 3 Yrotation Xrotation Zrotation
     JOINT Neck
     {
      OFFSET 0.000000 14.453000 0.000000
      CHANNELS 3 Yrotation Xrotation Zrotation
      JOINT Head
      {
       OFFSET 0.000000 8.936500 -0.011300
       CHANNELS 3 Yrotation Xrotation Zrotation
       End Site
       {
        OFFSET 0.000000 17.073600 -0.006000
       }
      }
     }
     JOINT RightCollar
     {
      OFFSET -2.921100 9.558500 0.000000
      CHANNELS 3 Yrotation Xrotation Zrotation
      JOINT RightShoulder
      {
       OFFSET -13.519700 0.000000 0.000000
       CHANNELS 3 Yrotation Xrotation Zrotation
       JOINT RightElbow
       {
        OFFSET 0.000000 -29.696600 0.000000
        CHANNELS 3 Yrotation Xrotation Zrotation
        JOINT RightWrist
        {
         OFFSET 0.000000 -24.004700 0.000000
         CHANNELS 3 Yrotation Xrotation Zrotation
         End Site
         {
          OFFSET 0.000000 -17.728500 0.000000
         }
        }
       }
      }
     }
     JOINT LeftCollar
     {
      OFFSET 2.921100 9.558500 0.000000
      CHANNELS 3 Yrotation Xrotation Zrotation
      JOINT LeftShoulder
      {
       OFFSET 13.519700 0.000000 0.000000
       CHANNELS 3 Yrotation Xrotation Zrotation
       JOINT LeftElbow
       {
        OFFSET 0.000000 -29.696600 0.000000
        CHANNELS 3 Yrotation Xrotation Zrotation
        JOINT LeftWrist
        {
         OFFSET 0.000000 -24.004700 0.000000
         CHANNELS 3 Yrotation Xrotation Zrotation
         End Site
         {
          OFFSET 0.000000 -17.728500 0.000000
         }
        }
       }
      }
     }
    }
   }
  }
 }
 JOINT RightHip
 {
  OFFSET -7.771700 -0.012900 -0.001300
  CHANNELS 3 Yrotation Xrotation Zrotation
  JOINT RightKnee
  {
   OFFSET 0.000000 -40.869800 0.001200
   CHANNELS 3 Yrotation Xrotation Zrotation
   JOINT RightAnkle
   {
    OFFSET 0.000000 -39.717900 0.002100
    CHANNELS 3 Yrotation Xrotation Zrotation
    JOINT RightToe
    {
     OFFSET 0.000000 -4.965400 11.033500
     CHANNELS 3 Yrotation Xrotation Zrotation
     End Site
     {
      OFFSET 0.000000 -1.423100 5.872300
     }
    }
   }
  }
 }
 JOINT LeftHip
 {
  OFFSET 7.771700 -0.012900 -0.001300
  CHANNELS 3 Yrotation Xrotation Zrotation
  JOINT LeftKnee
  {
   OFFSET 0.000000 -40.869800 0.001200
   CHANNELS 3 Yrotation Xrotation Zrotation
   JOINT LeftAnkle
   {
    OFFSET 0.000000 -39.717900 0.002100
    CHANNELS 3 Yrotation Xrotation Zrotation
    JOINT LeftToe
    {
     OFFSET 0.000000 -4.965400 11.033500
     CHANNELS 3 Yrotation Xrotation Zrotation
     End Site
     {
      OFFSET 0.000000 -1.423100 5.872300
     }
    }
   }
  }
 }
}
MOTION
Frames: 16
Frame Time: 0.008333
-39.369084 57.923157 12.443830 177.485874 -50.541557 -3.383067 3.057051 21.833826 2.863151 1.579073 12.503806 1.465815 2.043136 15.658272 1.906039 1.582074 12.504029 1.467534 1.206146 15.838560 2.078525 1.497272 -6.385867 3.435507 1.840589 3.147456 -0.815932 -5.127062 -8.812074 -8.210483 -85.480624 -62.755694 131.958388 10.240282 15.031577 -25.106462 -8.610821 0.048966 0.725723 0.333521 -6.480970 10.990469 128.007329 -73.931326 -155.145331 -15.081304 -8.689751 11.499340 2.646479 -21.114443 -3.243005 -33.538503 73.116686 -37.210162 6.866944 -13.511429 11.318485 -0.005781 -0.000156 -0.001061 -6.737996 -18.426796 5.902658 87.002220 82.261643 86.862669 1.201827 -21.815494 -18.316323 0.001317 -0.009787 -0.000935
-39.370466 57.919632 12.442020 177.470724 -50.492063 -3.376465 3.069791 21.857292 2.870104 1.575370 12.465022 1.463782 2.052949 15.650627 1.906440 1.580102 12.494767 1.467536 1.250061 15.769188 2.060322 1.567345 -6.552006 3.391091 1.810547 3.116873 -0.808363 -5.126186 -8.767850 -8.234658 -85.439803 -62.779674 131.917660 10.239558 15.042210 -25.098676 -8.566411 0.124385 0.799063 0.191359 -6.471409 10.974608 126.966174 -73.758425 -154.356229 -14.339927 -8.390399 11.583144 2.642209 -21.167955 -3.240802 -33.535917 73.122811 -37.215385 6.869159 -13.516623 11.317420 -0.009104 0.000166 -0.001489 -6.731998 -18.477802 5.910447 87.081762 82.258772 86.944801 1.201234 -21.823925 -18.313971 0.003583 -0.009586 -0.001952
-39.373078 57.916269 12.439704 177.466878 -50.441807 -3.372833 3.077481 21.849067 2.870767 1.578515 12.459956 1.467368 2.046506 15.622401 1.903115 1.585850 12.503673 1.468597 1.296159 15.697521 2.041284 1.640902 -6.727856 3.346315 1.776966 3.091329 -0.799700 -5.149047 -8.717222 -8.255737 -85.416889 -62.795300 131.920070 10.239652 15.058501 -25.084188 -8.509198 0.220656 0.894023 0.037787 -6.469723 10.942968 125.065307 -73.367449 -152.927502 -13.269242 -7.848121 11.652178 2.640206 -21.219570 -3.244675 -33.553197 73.126355 -37.232518 6.863436 -13.521862 11.315814 -0.003879 0.001159 -0.000323 -6.730536 -18.530591 5.905255 87.126798 82.250365 86.993978 1.212190 -21.825152 -18.309315 -0.002339 -0.008193 -0.008694
-39.374910 57.912912 12.437327 177.468159 -50.388853 -3.379208 3.086531 21.840747 2.877647 1.595100 12.501713 1.472000 2.040211 15.576576 1.902156 1.611411 12.545767 1.473887 1.317371 15.557232 2.025941 1.718731 -6.910634 3.298114 1.730023 3.004101 -0.794493 -5.175289 -8.689348 -8.261367 -85.407561 -62.802562 131.935505 10.235798 15.099980 -25.083500 -8.476611 0.258091 1.004341 -0.078066 -6.470386 10.903772 121.962642 -72.681651 -150.605969 -11.859652 -7.114049 11.717068 2.632209 -21.273666 -3.241312 -33.577048 73.129118 -37.256438 6.868651 -13.526034 11.310880 0.001008 -0.001563 0.002252 -6.739153 -18.583210 5.914415 87.193287 82.239402 87.061019 1.208714 -21.831623 -18.310776 -0.002092 -0.006818 -0.008437
-39.377538 57.910816 12.433700 177.474643 -50.343451 -3.385629 3.091677 21.841207 2.881898 1.598900 12.500512 1.474400 2.044941 15.574523 1.903210 1.615728 12.545022 1.478434 1.357592 15.457027 2.006570 1.799258 -7.097356 3.247604 1.665178 2.958084 -0.786422 -5.165121 -8.672580 -8.271467 -85.323226 -62.821538 131.849976 10.249366 15.112787 -25.057427 -8.436726 0.323934 1.082217 -0.098855 -6.463865 10.882597 117.563134 -71.625610 -147.356854 -10.164590 -6.341890 11.838786 2.617876 -21.319339 -3.242700 -33.588602 73.139392 -37.270610 6.866019 -13.537636 11.306369 0.000282 -0.001403 0.002581 -6.748705 -18.628172 5.920707 87.214311 82.235510 87.080896 1.206550 -21.833088 -18.310419 0.000275 -0.006234 -0.007136
-39.380362 57.908354 12.430272 177.473665 -50.293458 -3.386134 3.094527 21.813941 2.883143 1.607752 12.520726 1.475320 2.051949 15.576187 1.911096 1.607259 12.520595 1.475887 1.406378 15.372782 1.984992 1.878494 -7.288226 3.198929 1.544165 2.941642 -0.755713 -5.096047 -8.671029 -8.301605 -85.244630 -62.836308 131.787208 10.259305 15.142325 -25.038426 -8.408719 0.399196 1.133528 -0.003841 -6.452924 10.894510 112.108408 -70.115565 -143.416316 -8.379756 -5.726339 12.092710 2.608700 -21.375911 -3.243982 -33.599784 73.150214 -37.289164 6.869128 -13.539582 11.308710 -0.003284 -0.005864 -0.000171 -6.754430 -18.677521 5.927596 87.227839 82.231370 87.090990 1.204357 -21.833966 -18.308697 -0.000585 -0.004300 -0.005308
-39.382405 57.906030 12.426760 177.473009 -50.242414 -3.392439 3.097943 21.784545 2.889048 1.611672 12.519537 1.474690 2.060509 15.596047 1.915732 1.602795 12.499232 1.476078 1.455048 15.276652 1.955355 1.951553 -7.487186 3.154385 1.439179 2.933862 -0.728552 -5.035092 -8.681522 -8.325440 -85.213688 -62.840960 131.788316 10.256178 15.202724 -25.041706 -8.398979 0.482613 1.177243 0.176339 -6.452248 10.925972 106.188648 -68.079407 -139.307728 -6.894392 -5.438410 12.543868 2.603095 -21.428781 -3.238828 -33.609680 73.152695 -37.300660 6.866242 -13.539631 11.314307 -0.000371 -0.007554 -0.004494 -6.763805 -18.728075 5.938241 87.303046 82.222654 87.164465 1.200790 -21.839952 -18.307355 -0.001482 -0.003515 -0.005559
-39.384675 57.904911 12.422172 177.471682 -50.199007 -3.397527 3.113347 21.785550 2.893548 1.609287 12.494459 1.477453 2.076149 15.610823 1.915096 1.633428 12.505255 1.458794 1.472856 15.137088 1.949365 2.018535 -7.701499 3.113277 1.301121 2.904368 -0.664739 -4.952493 -8.699053 -8.354308 -85.164536 -62.852767 131.710748 10.265106 15.237159 -25.009340 -8.438893 0.566631 1.263921 0.405957 -6.469870 10.951097 100.663316 -65.569767 -135.737605 -6.076885 -5.556577 13.163537 2.597036 -21.478584 -3.233848 -33.624403 73.165220 -37.316903 6.871188 -13.543406 11.312940 -0.011259 -0.011388 -0.006590 -6.768684 -18.770685 5.946079 87.346875 82.217457 87.208394 1.198019 -21.842340 -18.302824 0.000124 -0.004274 -0.007373
-39.387296 57.906741 12.415077 177.470009 -50.176511 -3.400573 3.153660 21.841903 2.885950 1.629455 12.475292 1.475359 2.068115 15.569804 1.937058 1.653534 12.494159 1.442167 1.499702 15.003795 1.940962 2.082804 -7.940872 3.072844 1.162015 2.908992 -0.583676 -4.902915 -8.720827 -8.386714 -85.097905 -62.856761 131.656389 10.275106 15.267004 -24.981124 -8.479071 0.692555 1.357668 0.686402 -6.501377 10.949248 96.353855 -62.793034 -133.268919 -6.049744 -5.980013 13.769052 2.592185 -21.503724 -3.230213 -33.626617 73.169881 -37.321603 6.875242 -13.541806 11.311937 0.008373 -0.015437 -0.003850 -6.768322 -18.793324 5.950133 87.373908 82.215068 87.237596 1.198313 -21.837934 -18.299871 -0.001055 -0.008378 -0.007748
-39.389458 57.904449 12.411526 177.471902 -50.118971 -3.411006 3.171303 21.823318 2.883004 1.640029 12.463624 1.472644 2.085998 15.557510 1.937295 1.659168 12.480170 1.437200 1.532622 14.856440 1.923923 2.148958 -8.214878 3.028434 1.027091 2.938784 -0.498958 -4.934248 -8.764696 -8.416719 -84.967866 -62.850169 131.624769 10.290707 15.271426 -24.944251 -8.519177 0.820490 1.440662 1.044009 -6.536844 10.909693 93.721543 -60.034064 -132.123246 -6.725036 -6.511271 14.174887 2.589577 -21.561265 -3.228338 -33.636342 73.173503 -37.324934 6.877463 -13.545593 11.312371 0.008209 -0.015012 -0.004005 -6.779410 -18.856596 5.964275 87.493364 82.211851 87.356392 1.199143 -21.837593 -18.297787 -0.005066 -0.012815 -0.008305
-39.390634 57.897277 12.412364 177.472257 -50.018951 -3.428126 3.182898 21.753537 2.886199 1.650014 12.464231 1.464166 2.106651 15.537307 1.935769 1.659776 12.472822 1.433961 1.568327 14.686304 1.903557 2.221536 -8.531145 2.976472 0.900620 2.992367 -0.414180 -4.900058 -8.835566 -8.454538 -84.905974 -62.836337 131.596707 10.294419 15.299519 -24.948417 -8.547410 0.877940 1.500502 1.491765 -6.525654 10.842582 92.901667 -57.665531 -132.347715 -7.759562 -7.032747 14.354008 2.583948 -21.662332 -3.219484 -33.640742 73.178251 -37.321990 6.884871 -13.555151 11.308330 0.012044 -0.009060 -0.000142 -6.798232 -18.958888 5.990959 87.589513 82.211028 87.453903 1.202211 -21.843763 -18.299580 -0.003856 -0.010657 -0.008164
-39.391319 57.893206 12.410833 177.466925 -49.938513 -3.443589 3.191483 21.682728 2.898901 1.658430 12.490489 1.444974 2.126141 15.516801 1.932117 1.657937 12.464338 1.431228 1.606987 14.493006 1.879687 2.300972 -8.890393 2.916601 0.788390 3.067040 -0.330394 -4.875355 -8.924074 -8.495991 -84.890275 -62.790328 131.568860 10.322516 15.327999 -24.911799 -8.565742 0.924273 1.553207 2.040382 -6.538376 10.743323 93.905240 -55.991052 -133.958264 -8.620142 -7.516610 14.405711 2.578260 -21.744008 -3.204603 -33.652313 73.181907 -37.330727 6.896830 -13.563199 11.307904 -0.013529 -0.007147 -0.003130 -6.812084 -19.039400 6.017713 87.728670 82.218081 87.595129 1.217270 -21.857598 -18.303885 -0.004826 -0.008809 -0.008405
-39.393593 57.894468 12.404766 177.461606 -49.894796 -3.448009 3.204629 21.688661 2.887644 1.659601 12.458927 1.453159 2.138126 15.521597 1.913423 1.655343 12.445427 1.430526 1.647573 14.281607 1.852265 2.385587 -9.283280 2.848943 0.694514 3.160552 -0.246546 -4.862564 -9.014018 -8.544761 -84.890331 -62.746485 131.583648 10.345473 15.336733 -24.895174 -8.590899 1.010075 1.594418 2.651586 -6.630829 10.632237 96.558398 -54.977818 -136.789999 -8.980288 -7.959399 14.383147 2.589168 -21.787188 -3.202341 -33.644753 73.182722 -37.310006 6.869716 -13.553520 11.308655 -0.007061 -0.009534 -0.001207 -6.816938 -19.081238 6.029448 87.762529 82.216330 87.629738 1.219521 -21.859346 -18.304771 -0.003874 -0.009379 -0.008142
-39.396125 57.896195 12.398338 177.455913 -49.849161 -3.449097 3.207995 21.742236 2.853600 1.672908 12.378022 1.476504 2.142773 15.523818 1.894666 1.651957 12.418008 1.436485 1.688023 14.058793 1.820112 2.472127 -9.697270 2.771945 0.618477 3.273406 -0.169955 -4.863026 -9.092006 -8.599420 -84.911248 -62.706670 131.636951 10.355702 15.332287 -24.900764 -8.563512 1.054819 1.645530 3.188435 -6.733673 10.499380 100.301569 -54.289432 -140.332423 -8.964062 -8.394284 14.263651 2.600542 -21.833098 -3.208412 -33.627782 73.188796 -37.280622 6.850524 -13.546438 11.307303 0.004061 -0.013010 0.001804 -6.820347 -19.124809 6.037916 87.791599 82.213682 87.659551 1.220191 -21.861996 -18.304337 -0.002780 -0.009884 -0.008605
-39.396777 57.894995 12.394517 177.443591 -49.775169 -3.454308 3.206902 21.710552 2.847521 1.666800 12.388307 1.455436 2.162416 15.482290 1.898226 1.659556 12.399390 1.450447 1.719451 13.815207 1.782821 2.559339 -10.120171 2.683982 0.551759 3.387679 -0.110246 -4.881369 -9.147655 -8.652654 -84.947208 -62.664765 131.709578 10.357043 15.318793 -24.912756 -8.505820 1.113842 1.718493 3.676707 -6.937469 10.326062 104.397795 -53.574869 -143.964290 -8.864645 -8.861688 14.021216 2.626570 -21.909239 -3.194422 -33.644549 73.198855 -37.284562 6.831907 -13.549213 11.312347 0.006903 -0.015011 0.004401 -6.825288 -19.195725 6.058382 87.874114 82.218932 87.742120 1.232236 -21.875671 -18.303798 -0.004221 -0.006781 -0.009679
-39.396132 57.893825 12.390450 177.426303 -49.697848 -3.459174 3.205644 21.668972 2.851552 1.669807 12.364144 1.454260 2.139087 15.449905 1.893844 1.687246 12.410957 1.443770 1.751269 13.557143 1.755796 2.652740 -10.541886 2.584737 0.525392 3.450274 -0.081547 -4.950282 -9.123466 -8.676140 -84.981909 -62.623042 131.789386 10.353425 15.299074 -24.930678 -8.417510 1.185404 1.821497 4.237536 -7.271977 10.108892 108.312958 -52.659293 -147.330928 -8.799322 -9.366301 13.674923 2.633954 -21.988406 -3.175262 -33.643237 73.203532 -37.282503 6.827976 -13.550519 11.312937 0.008723 -0.016270 0.005894 -6.824552 -19.269893 6.080480 87.911310 82.219083 87.782161 1.241847 -21.882959 -18.302283 -0.007959 -0.004219 -0.010764
